<svg class="style-svg replaced-svg svg-replaced-0" id="svg-replaced-0" fill="none" viewBox="0 0 115 42" height="42" width="115" xmlns="http://www.w3.org/2000/svg">
        <path fill="#23262E" d="M4.83727 0H0V27.6768H4.83727V0Z"></path>
        <path fill="#23262E" d="M38.3111 27.6768V0H29.9667C29.4335 0.00286483 28.9149 0.174149 28.4856 0.489217C28.0562 0.804286 27.7382 1.2469 27.5773 1.7534L19.1683 27.6385L10.7592 1.7534C10.5983 1.24688 10.2803 0.80425 9.85098 0.489177C9.42162 0.174105 8.90302 0.00283324 8.36977 0H4.83777L13.838 27.6768H24.4986L33.4739 0.0766704V27.6768H38.3111Z"></path>
        <path fill="#23262E" d="M80.631 0H75.7054V27.6768H80.631V0Z"></path>
        <path fill="#23262E" d="M109.791 1.11807e-10H106.22C105.681 -5.02629e-06 105.155 0.16947 104.718 0.484293C104.282 0.799115 103.956 1.24323 103.787 1.7534L95.224 27.6385L86.6612 1.7534C86.4924 1.24325 86.1664 0.799147 85.7296 0.48433C85.2927 0.169512 84.7673 2.6121e-05 84.2281 1.11807e-10H80.6315L89.7962 27.6768H100.652L109.791 0.0766151V27.6768H114.717V1.11807e-10H109.791Z"></path>
        <path fill="#23262E" d="M73.4413 27.6462L60.4284 13.8994L73.5567 0.0306702H68.4855C67.9841 0.0308046 67.488 0.133029 67.0277 0.331064C66.5674 0.5291 66.1526 0.818767 65.8088 1.18229L57.0995 10.3828L48.3903 1.18229C48.0464 0.818762 47.6316 0.529091 47.1713 0.331055C46.711 0.133019 46.2149 0.0307984 45.7135 0.0306702H40.6425L53.7707 13.8994L40.7578 27.6462H45.8289C46.3303 27.6461 46.8264 27.5439 47.2867 27.3458C47.747 27.1478 48.1618 26.8581 48.5057 26.4946L57.0995 17.416L65.6933 26.4946C66.0372 26.8581 66.452 27.1478 66.9123 27.3458C67.3726 27.5439 67.8687 27.6461 68.3701 27.6462H73.4413Z"></path>
        <path fill="#23262E" d="M18.4871 39.0979C18.0939 38.8398 17.397 38.6171 16.3872 38.4482C15.6279 38.3322 15.0916 38.1808 14.7878 38.012C14.4842 37.8428 14.3324 37.6024 14.3323 37.2909C14.3323 36.5877 14.9666 36.2314 16.2354 36.2314C17.4595 36.2314 18.1028 36.5788 18.3173 37.3709H18.9606C18.7372 36.1604 17.9153 35.6528 16.2801 35.6528C14.5735 35.6528 13.7245 36.2136 13.7245 37.3352C13.7245 37.8249 13.9123 38.1898 14.2876 38.4393C14.6538 38.6884 15.3151 38.884 16.2533 39.0354C17.0752 39.16 17.6471 39.3203 17.9778 39.5073C18.1255 39.5824 18.249 39.6973 18.3343 39.839C18.4196 39.9806 18.4632 40.1432 18.4603 40.3084C18.4603 41.0473 17.799 41.4125 16.4856 41.4125C15.19 41.4125 14.5198 41.0651 14.2787 40.273H13.6354C13.8944 41.4835 14.7343 42 16.4141 42C18.1832 42 19.0679 41.4214 19.0679 40.2552C19.0679 39.7475 18.8712 39.3559 18.4871 39.0979Z"></path>
        <path fill="#23262E" d="M26.3842 35.7063H25.7677V41.9375H26.3842V35.7063Z"></path>
        <path fill="#23262E" d="M37.9356 39.0979C37.5422 38.8398 36.8455 38.6171 35.8357 38.4482C35.0763 38.3322 34.5401 38.1808 34.2363 38.012C33.9325 37.8428 33.7807 37.6024 33.7806 37.2909C33.7806 36.5877 34.4151 36.2314 35.6838 36.2314C36.9079 36.2314 37.5513 36.5788 37.7658 37.3709H38.409C38.1856 36.1604 37.3638 35.6528 35.7286 35.6528C34.022 35.6528 33.173 36.2136 33.173 37.3352C33.173 37.8249 33.3608 38.1898 33.7361 38.4393C34.1022 38.6884 34.7635 38.884 35.7017 39.0354C36.5237 39.16 37.0954 39.3203 37.4262 39.5073C37.5739 39.5824 37.6974 39.6973 37.7827 39.8389C37.868 39.9806 37.9116 40.1432 37.9086 40.3084C37.9086 41.0473 37.2475 41.4125 35.9341 41.4125C34.6385 41.4125 33.9683 41.0651 33.7271 40.273H33.0837C33.3428 41.4835 34.1826 42 35.8626 42C37.6317 42 38.5164 41.4214 38.5164 40.2552C38.5164 39.7475 38.3197 39.3559 37.9356 39.0979Z"></path>
        <path fill="#23262E" d="M44.2874 36.285H47.1019V41.9375H47.7185V36.285H50.5332V35.7063H44.2874V36.285Z"></path>
        <path fill="#23262E" d="M57.0632 41.9375H62.1294V41.3589H57.6796V39.0979H61.6826V38.5461H57.6796V36.285H62.1294V35.7063H57.0632V41.9375Z"></path>
        <path fill="#23262E" d="M72.6983 41.2879L70.0267 35.7063H69.035V41.9375H69.6515V36.285L72.3321 41.9375H73.0646L75.7364 36.285V41.9375H76.3528V35.7063H75.361L72.6983 41.2879Z"></path>
        <path fill="#23262E" d="M85.8223 35.7063L82.8467 41.9375H83.508L84.2227 40.4244H88.1453L88.8691 41.9375H89.5303L86.5549 35.7063H85.8223ZM84.5087 39.8457L86.1887 36.3203L87.8683 39.8368L84.5087 39.8457Z"></path>
        <path fill="#23262E" d="M100.242 39.0979C99.8491 38.8398 99.1522 38.6171 98.1426 38.4482C97.3831 38.3322 96.847 38.1808 96.5431 38.012C96.2394 37.8428 96.0876 37.6024 96.0875 37.2909C96.0875 36.5877 96.7219 36.2314 97.9907 36.2314C99.2148 36.2314 99.8581 36.5788 100.073 37.3709H100.716C100.492 36.1604 99.6705 35.6528 98.0355 35.6528C96.3288 35.6528 95.4799 36.2136 95.4799 37.3352C95.4799 37.8249 95.6675 38.1898 96.043 38.4393C96.4091 38.6884 97.0704 38.884 98.0085 39.0354C98.8305 39.16 99.4023 39.3203 99.7331 39.5073C99.8808 39.5824 100.004 39.6973 100.09 39.8389C100.175 39.9806 100.219 40.1432 100.216 40.3084C100.216 41.0473 99.5542 41.4125 98.2409 41.4125C96.9453 41.4125 96.2751 41.0651 96.0339 40.273H95.3906C95.6497 41.4835 96.4895 42 98.1694 42C99.9385 42 100.823 41.4214 100.823 40.2552C100.823 39.7475 100.626 39.3559 100.242 39.0979Z"></path>
        </svg>